# xmcd CD database file
#
# Track frame offsets:
#	150
#	13690
#	28161
#	41864
#	53183
#	65989
#	83628
#	99503
#	115129
#	129387
#	139089
#	154675
#
# Disc length: 2220 seconds
#
# Revision: 2
# Processed by: cddbd v1.5.2PL0 Copyright (c) Steve Scherf et al.
# Submitted via: CDex 1.51
#
DISCID=a308aa0c
DTITLE=Merle Haggard - I Am What I Am
DYEAR=2010
DGENRE=Country
TTITLE0=I've Seen It Go Away
TTITLE1=Pretty When It's New
TTITLE2=Oil Tanker Train
TTITLE3=Live And Love Always
TTITLE4=The Road To My Heart
TTITLE5=How Did You Find Me Here
TTITLE6=We're Falling In Love Again
TTITLE7=Bad Actor
TTITLE8=Down At The End Of The Road
TTITLE9=Stranger In The City
TTITLE10=Mexican Bands
TTITLE11=i am what i am
EXTD=YEAR: 2010
EXTT0=
EXTT1=
EXTT2=
EXTT3=
EXTT4=
EXTT5=
EXTT6=
EXTT7=
EXTT8=
EXTT9=
EXTT10=
EXTT11=
PLAYORDER=
